# xmcd
#
# Track frame offsets: 
#        150
#        68404
#        146548
#        175115
#
# Disc length: 3076 seconds
#
# Revision: 0
# Processed by: cddbd v1.5.2PL0 Copyright (c) Steve Scherf et al.
# Submitted via: ExactAudioCopy v1.0b1
#
DISCID=2c0c0204
DTITLE=Wilhelm Furtwangler - Beethoven Symphony No.3
DYEAR=2012
DGENRE=Classical
TTITLE0=Allegro con brio
TTITLE1=Marcia funebre. Adagio assai
TTITLE2=Scherzo. Allegro vivace
TTITLE3=Finale. Allegro molto
EXTD=
EXTT0=
EXTT1=
EXTT2=
EXTT3=
PLAYORDER=
